<mxfile host="app.diagrams.net" modified="2022-12-28T09:29:39.265Z" agent="5.0 (X11)" etag="ihNkeNMnF88c3BaSS7Us" version="20.7.4" type="github">
  <diagram id="C5RBs43oDa-KdzZeNtuy" name="Page-1">
    <mxGraphModel dx="1434" dy="795" grid="1" gridSize="10" guides="1" tooltips="1" connect="1" arrows="1" fold="1" page="1" pageScale="1" pageWidth="827" pageHeight="1169" math="0" shadow="0">
      <root>
        <mxCell id="WIyWlLk6GJQsqaUBKTNV-0" />
        <mxCell id="WIyWlLk6GJQsqaUBKTNV-1" parent="WIyWlLk6GJQsqaUBKTNV-0" />
        <mxCell id="8ttvHOXDuk_E-sz2W-6K-4" value="ALP.Lab Tool" style="swimlane;whiteSpace=wrap;html=1;" vertex="1" parent="WIyWlLk6GJQsqaUBKTNV-1">
          <mxGeometry x="220" y="140" width="500" height="540" as="geometry" />
        </mxCell>
        <mxCell id="8ttvHOXDuk_E-sz2W-6K-13" value="Plug in lamp" style="rounded=1;whiteSpace=wrap;html=1;fontSize=12;glass=0;strokeWidth=1;shadow=0;" vertex="1" parent="8ttvHOXDuk_E-sz2W-6K-4">
          <mxGeometry x="320" y="180" width="120" height="40" as="geometry" />
        </mxCell>
        <mxCell id="8ttvHOXDuk_E-sz2W-6K-12" value="Format Check" style="rounded=1;whiteSpace=wrap;html=1;fontSize=12;glass=0;strokeWidth=1;shadow=0;" vertex="1" parent="8ttvHOXDuk_E-sz2W-6K-4">
          <mxGeometry x="320" y="385" width="120" height="40" as="geometry" />
        </mxCell>
        <mxCell id="8ttvHOXDuk_E-sz2W-6K-9" value="Geospatial Data Transformation" style="rhombus;whiteSpace=wrap;html=1;shadow=0;fontFamily=Helvetica;fontSize=12;align=center;strokeWidth=1;spacing=6;spacingTop=-4;" vertex="1" parent="8ttvHOXDuk_E-sz2W-6K-4">
          <mxGeometry x="46" y="140" width="136" height="120" as="geometry" />
        </mxCell>
        <mxCell id="8ttvHOXDuk_E-sz2W-6K-8" value="No" style="edgeStyle=orthogonalEdgeStyle;rounded=0;html=1;jettySize=auto;orthogonalLoop=1;fontSize=11;endArrow=block;endFill=0;endSize=8;strokeWidth=1;shadow=0;labelBackgroundColor=none;" edge="1" parent="8ttvHOXDuk_E-sz2W-6K-4" source="8ttvHOXDuk_E-sz2W-6K-9" target="8ttvHOXDuk_E-sz2W-6K-13">
          <mxGeometry y="10" relative="1" as="geometry">
            <mxPoint as="offset" />
          </mxGeometry>
        </mxCell>
        <mxCell id="8ttvHOXDuk_E-sz2W-6K-11" value="C-ITS&lt;br&gt;Encoder" style="rhombus;whiteSpace=wrap;html=1;shadow=0;fontFamily=Helvetica;fontSize=12;align=center;strokeWidth=1;spacing=6;spacingTop=-4;" vertex="1" parent="8ttvHOXDuk_E-sz2W-6K-4">
          <mxGeometry x="64" y="365" width="100" height="80" as="geometry" />
        </mxCell>
        <mxCell id="8ttvHOXDuk_E-sz2W-6K-7" value="Yes" style="rounded=0;html=1;jettySize=auto;orthogonalLoop=1;fontSize=11;endArrow=block;endFill=0;endSize=8;strokeWidth=1;shadow=0;labelBackgroundColor=none;edgeStyle=orthogonalEdgeStyle;" edge="1" parent="8ttvHOXDuk_E-sz2W-6K-4" source="8ttvHOXDuk_E-sz2W-6K-9" target="8ttvHOXDuk_E-sz2W-6K-11">
          <mxGeometry y="20" relative="1" as="geometry">
            <mxPoint as="offset" />
          </mxGeometry>
        </mxCell>
        <mxCell id="8ttvHOXDuk_E-sz2W-6K-14" value="No" style="rounded=0;html=1;jettySize=auto;orthogonalLoop=1;fontSize=11;endArrow=block;endFill=0;endSize=8;strokeWidth=1;shadow=0;labelBackgroundColor=none;edgeStyle=orthogonalEdgeStyle;movable=1;resizable=1;rotatable=1;deletable=1;editable=1;connectable=1;strokeColor=default;entryX=0;entryY=0.5;entryDx=0;entryDy=0;exitX=1;exitY=0.5;exitDx=0;exitDy=0;" edge="1" parent="8ttvHOXDuk_E-sz2W-6K-4" source="8ttvHOXDuk_E-sz2W-6K-11" target="8ttvHOXDuk_E-sz2W-6K-12">
          <mxGeometry x="-0.0714" y="20" relative="1" as="geometry">
            <mxPoint as="offset" />
          </mxGeometry>
        </mxCell>
        <mxCell id="8ttvHOXDuk_E-sz2W-6K-5" value="" style="rounded=0;html=1;jettySize=auto;orthogonalLoop=1;fontSize=11;endArrow=block;endFill=0;endSize=8;strokeWidth=1;shadow=0;labelBackgroundColor=none;edgeStyle=orthogonalEdgeStyle;" edge="1" parent="WIyWlLk6GJQsqaUBKTNV-1" source="8ttvHOXDuk_E-sz2W-6K-6" target="8ttvHOXDuk_E-sz2W-6K-9">
          <mxGeometry relative="1" as="geometry" />
        </mxCell>
        <mxCell id="8ttvHOXDuk_E-sz2W-6K-6" value="Helius" style="rounded=1;whiteSpace=wrap;html=1;fontSize=12;glass=0;strokeWidth=1;shadow=0;" vertex="1" parent="WIyWlLk6GJQsqaUBKTNV-1">
          <mxGeometry x="274" y="70" width="120" height="40" as="geometry" />
        </mxCell>
        <mxCell id="8ttvHOXDuk_E-sz2W-6K-10" value="RSU" style="rounded=1;whiteSpace=wrap;html=1;fontSize=12;glass=0;strokeWidth=1;shadow=0;" vertex="1" parent="WIyWlLk6GJQsqaUBKTNV-1">
          <mxGeometry x="274" y="740" width="120" height="40" as="geometry" />
        </mxCell>
        <mxCell id="8ttvHOXDuk_E-sz2W-6K-15" value="Yes" style="edgeStyle=orthogonalEdgeStyle;rounded=0;html=1;jettySize=auto;orthogonalLoop=1;fontSize=11;endArrow=block;endFill=0;endSize=8;strokeWidth=1;shadow=0;labelBackgroundColor=none;exitX=0.5;exitY=1;exitDx=0;exitDy=0;entryX=0.5;entryY=0;entryDx=0;entryDy=0;" edge="1" parent="WIyWlLk6GJQsqaUBKTNV-1" source="8ttvHOXDuk_E-sz2W-6K-11" target="8ttvHOXDuk_E-sz2W-6K-10">
          <mxGeometry x="-0.0588" y="26" relative="1" as="geometry">
            <mxPoint as="offset" />
            <mxPoint x="580" y="590" as="targetPoint" />
          </mxGeometry>
        </mxCell>
        <mxCell id="8ttvHOXDuk_E-sz2W-6K-16" value="Steps" style="swimlane;fontStyle=0;childLayout=stackLayout;horizontal=1;startSize=30;horizontalStack=0;resizeParent=1;resizeParentMax=0;resizeLast=0;collapsible=1;marginBottom=0;whiteSpace=wrap;html=1;" vertex="1" parent="WIyWlLk6GJQsqaUBKTNV-1">
          <mxGeometry x="30" y="200" width="140" height="220" as="geometry" />
        </mxCell>
        <mxCell id="8ttvHOXDuk_E-sz2W-6K-17" value="&lt;div&gt;Data filter&lt;span style=&quot;white-space: pre;&quot;&gt;	&lt;/span&gt;&lt;/div&gt;" style="text;strokeColor=none;fillColor=none;align=left;verticalAlign=middle;spacingLeft=4;spacingRight=4;overflow=hidden;points=[[0,0.5],[1,0.5]];portConstraint=eastwest;rotatable=0;whiteSpace=wrap;html=1;" vertex="1" parent="8ttvHOXDuk_E-sz2W-6K-16">
          <mxGeometry y="30" width="140" height="30" as="geometry" />
        </mxCell>
        <mxCell id="8ttvHOXDuk_E-sz2W-6K-18" value="Geospatial Transformation" style="text;strokeColor=none;fillColor=none;align=left;verticalAlign=middle;spacingLeft=4;spacingRight=4;overflow=hidden;points=[[0,0.5],[1,0.5]];portConstraint=eastwest;rotatable=0;whiteSpace=wrap;html=1;" vertex="1" parent="8ttvHOXDuk_E-sz2W-6K-16">
          <mxGeometry y="60" width="140" height="40" as="geometry" />
        </mxCell>
        <mxCell id="8ttvHOXDuk_E-sz2W-6K-19" value="C-ITS Encoder" style="text;strokeColor=none;fillColor=none;align=left;verticalAlign=middle;spacingLeft=4;spacingRight=4;overflow=hidden;points=[[0,0.5],[1,0.5]];portConstraint=eastwest;rotatable=0;whiteSpace=wrap;html=1;" vertex="1" parent="8ttvHOXDuk_E-sz2W-6K-16">
          <mxGeometry y="100" width="140" height="30" as="geometry" />
        </mxCell>
        <mxCell id="8ttvHOXDuk_E-sz2W-6K-21" value="&lt;div&gt;Format Check&lt;/div&gt;" style="text;strokeColor=none;fillColor=none;align=left;verticalAlign=middle;spacingLeft=4;spacingRight=4;overflow=hidden;points=[[0,0.5],[1,0.5]];portConstraint=eastwest;rotatable=0;whiteSpace=wrap;html=1;" vertex="1" parent="8ttvHOXDuk_E-sz2W-6K-16">
          <mxGeometry y="130" width="140" height="30" as="geometry" />
        </mxCell>
        <mxCell id="8ttvHOXDuk_E-sz2W-6K-22" value="Message distributer" style="text;strokeColor=none;fillColor=none;align=left;verticalAlign=middle;spacingLeft=4;spacingRight=4;overflow=hidden;points=[[0,0.5],[1,0.5]];portConstraint=eastwest;rotatable=0;whiteSpace=wrap;html=1;" vertex="1" parent="8ttvHOXDuk_E-sz2W-6K-16">
          <mxGeometry y="160" width="140" height="30" as="geometry" />
        </mxCell>
        <mxCell id="8ttvHOXDuk_E-sz2W-6K-20" value="Data Logger" style="text;strokeColor=none;fillColor=none;align=left;verticalAlign=middle;spacingLeft=4;spacingRight=4;overflow=hidden;points=[[0,0.5],[1,0.5]];portConstraint=eastwest;rotatable=0;whiteSpace=wrap;html=1;" vertex="1" parent="8ttvHOXDuk_E-sz2W-6K-16">
          <mxGeometry y="190" width="140" height="30" as="geometry" />
        </mxCell>
      </root>
    </mxGraphModel>
  </diagram>
</mxfile>
